<?xml version="1.0" encoding="UTF-8"?>
<svg xmlns="http://www.w3.org/2000/svg" xmlns:xlink="http://www.w3.org/1999/xlink" width="70px" height="70px" viewBox="0 0 70 70" version="1.1">
<g id="surface1">
<path style=" stroke:none;fill-rule:evenodd;fill:rgb(0%,0.784314%,5.098039%);fill-opacity:1;" d="M 31.855469 11.558594 C 30.726562 12.0625 30.054688 13.121094 30.058594 14.371094 C 30.070312 16.238281 31.320312 17.503906 33.15625 17.496094 C 33.710938 17.492188 34.753906 17.101562 34.921875 16.832031 C 35.054688 16.617188 37.5625 19.09375 37.730469 19.609375 C 37.832031 19.914062 37.8125 20.347656 37.664062 21.191406 C 37.554688 21.832031 37.460938 22.375 37.460938 22.40625 C 37.460938 22.433594 37.351562 22.375 37.222656 22.273438 C 37.089844 22.171875 37.195312 22.320312 37.453125 22.597656 C 37.710938 22.878906 37.953125 23.105469 37.988281 23.105469 C 38.023438 23.105469 37.941406 22.984375 37.808594 22.839844 C 37.578125 22.582031 37.578125 22.515625 37.808594 21.289062 C 37.941406 20.585938 38.007812 19.84375 37.957031 19.640625 C 37.902344 19.429688 37.246094 18.667969 36.402344 17.839844 C 35.257812 16.714844 34.917969 16.449219 34.828125 16.609375 C 34.480469 17.234375 32.84375 17.464844 31.835938 17.035156 C 29.960938 16.238281 29.644531 13.253906 31.308594 12.097656 C 31.867188 11.710938 32.804688 11.519531 33.410156 11.671875 C 34.398438 11.921875 35.269531 13.324219 35.273438 14.671875 C 35.273438 15.109375 35.207031 15.59375 35.125 15.746094 C 34.988281 15.996094 35.140625 16.1875 36.558594 17.554688 C 37.429688 18.390625 38.144531 19.054688 38.144531 19.019531 C 38.144531 18.988281 37.5 18.308594 36.710938 17.507812 L 35.277344 16.054688 L 35.425781 15.519531 C 35.765625 14.285156 35.140625 12.480469 34.144531 11.820312 C 33.445312 11.355469 32.539062 11.25 31.855469 11.558594 M 49.535156 14.640625 C 48.816406 15.101562 48.480469 15.789062 48.476562 16.816406 C 48.476562 17.414062 48.554688 17.855469 48.71875 18.164062 C 48.855469 18.414062 48.996094 18.589844 49.035156 18.550781 C 49.070312 18.511719 49.003906 18.289062 48.878906 18.050781 C 48.492188 17.300781 48.472656 16.421875 48.832031 15.722656 C 49.40625 14.613281 50.480469 14.199219 51.328125 14.757812 C 52.613281 15.605469 52.738281 17.769531 51.566406 18.757812 C 50.875 19.339844 49.703125 19.386719 49.34375 18.84375 C 49.300781 18.777344 48.882812 19.125 48.410156 19.617188 C 47.941406 20.105469 47.527344 20.507812 47.488281 20.507812 C 47.453125 20.507812 47.226562 20.363281 46.988281 20.183594 C 46.296875 19.667969 45.601562 19.503906 44.492188 19.597656 C 42.921875 19.730469 42.175781 20.070312 39.9375 21.679688 C 39.359375 22.09375 38.144531 22.164062 38.144531 21.785156 C 38.144531 21.476562 38.066406 21.585938 37.953125 22.054688 C 37.871094 22.402344 37.886719 22.421875 38.132812 22.292969 C 38.277344 22.214844 38.640625 22.148438 38.9375 22.148438 C 39.371094 22.148438 39.730469 21.980469 40.78125 21.277344 C 42.40625 20.1875 43.4375 19.824219 44.875 19.824219 C 45.464844 19.824219 46.144531 19.90625 46.386719 20.007812 C 47.0625 20.292969 47.6875 21.097656 47.945312 22.019531 C 48.140625 22.730469 48.210938 22.832031 48.507812 22.832031 C 48.835938 22.832031 48.84375 22.851562 48.757812 23.585938 C 48.691406 24.144531 48.714844 24.335938 48.839844 24.335938 C 49.121094 24.335938 49.132812 23.117188 48.859375 22.8125 C 48.734375 22.671875 48.546875 22.558594 48.449219 22.558594 C 48.347656 22.558594 48.226562 22.390625 48.175781 22.183594 C 48.125 21.976562 47.96875 21.570312 47.824219 21.28125 C 47.523438 20.6875 47.492188 20.757812 48.578125 19.597656 C 49.105469 19.035156 49.117188 19.03125 49.570312 19.222656 C 50.199219 19.484375 50.636719 19.464844 51.273438 19.136719 C 52.105469 18.714844 52.570312 17.910156 52.566406 16.894531 C 52.5625 14.9375 50.945312 13.734375 49.535156 14.640625 M 33.90625 14.945312 C 33.90625 14.96875 34.105469 15.167969 34.351562 15.390625 L 34.796875 15.789062 L 34.394531 15.347656 C 34.019531 14.933594 33.90625 14.839844 33.90625 14.945312 M 35.824219 22.3125 C 35.523438 22.636719 35.46875 22.90625 35.683594 23.039062 C 36.039062 23.257812 35.671875 23.347656 33.828125 23.503906 C 32.734375 23.59375 31.75 23.703125 31.640625 23.742188 C 31.394531 23.839844 31.378906 24.742188 31.621094 25.070312 C 31.78125 25.292969 31.9375 25.296875 33.636719 25.160156 C 34.648438 25.082031 35.65625 24.976562 35.871094 24.929688 C 36.449219 24.804688 36.28125 25.148438 35.570312 25.542969 C 34.753906 25.996094 34.863281 26.1875 35.695312 25.765625 C 36.363281 25.425781 36.40625 25.421875 36.65625 25.652344 C 36.894531 25.863281 36.996094 25.871094 37.609375 25.714844 C 38.011719 25.609375 38.542969 25.574219 38.898438 25.628906 C 39.570312 25.730469 40.644531 26.390625 41.0625 26.960938 C 41.296875 27.285156 41.308594 27.359375 41.140625 27.566406 C 40.964844 27.78125 40.976562 27.792969 41.21875 27.695312 C 42.273438 27.269531 43.078125 27.132812 44.261719 27.183594 C 44.660156 27.199219 44.84375 27.269531 44.84375 27.398438 C 44.84375 27.519531 44.9375 27.566406 45.105469 27.523438 C 45.359375 27.457031 45.359375 27.449219 45.105469 27.195312 C 44.902344 26.992188 44.652344 26.933594 43.988281 26.941406 C 43.15625 26.945312 42.261719 27.078125 41.828125 27.261719 C 41.667969 27.328125 41.464844 27.121094 41.050781 26.476562 C 40.460938 25.5625 39.890625 25.113281 39.128906 24.972656 C 38.535156 24.859375 38.683594 25.089844 39.34375 25.300781 C 39.902344 25.480469 40.804688 26.097656 40.683594 26.21875 C 40.640625 26.257812 40.5 26.195312 40.367188 26.078125 C 40.234375 25.957031 39.792969 25.730469 39.378906 25.566406 C 38.691406 25.296875 38.566406 25.289062 37.765625 25.449219 C 37.054688 25.589844 36.875 25.585938 36.785156 25.441406 C 36.554688 25.070312 36.789062 24.789062 37.425781 24.664062 C 37.773438 24.597656 38.070312 24.460938 38.089844 24.367188 C 38.109375 24.269531 38.09375 24.253906 38.054688 24.332031 C 38.015625 24.414062 37.460938 24.46875 36.730469 24.464844 C 35.90625 24.457031 35.570312 24.414062 35.75 24.335938 C 35.902344 24.269531 36.203125 24.214844 36.417969 24.207031 C 36.792969 24.199219 36.808594 24.175781 36.734375 23.703125 C 36.644531 23.171875 36.300781 22.695312 36.003906 22.695312 C 35.902344 22.695312 35.820312 22.640625 35.820312 22.574219 C 35.820312 22.375 36.140625 22.175781 36.570312 22.113281 L 36.984375 22.054688 L 36.542969 22.03125 C 36.25 22.019531 36.011719 22.109375 35.824219 22.3125 M 48.074219 23.667969 C 47.960938 24.238281 48.070312 24.351562 48.195312 23.789062 C 48.246094 23.550781 48.257812 23.332031 48.222656 23.296875 C 48.191406 23.261719 48.121094 23.429688 48.074219 23.667969 M 35.070312 23.53125 C 34.617188 23.59375 33.820312 23.695312 33.300781 23.75 C 32.683594 23.820312 32.332031 23.925781 32.292969 24.050781 C 32.242188 24.207031 32.375 24.226562 33.035156 24.152344 C 34.738281 23.960938 35.898438 23.734375 36.089844 23.5625 C 36.320312 23.351562 36.359375 23.351562 35.070312 23.53125 M 31.652344 23.917969 C 31.550781 24.085938 31.714844 24.746094 31.855469 24.746094 C 31.917969 24.746094 31.957031 24.53125 31.953125 24.265625 C 31.9375 23.800781 31.816406 23.65625 31.652344 23.917969 M 47.722656 24.863281 C 47.351562 25.753906 46.328125 26.328125 45.308594 26.214844 C 44.886719 26.167969 44.726562 26.1875 44.820312 26.28125 C 44.898438 26.359375 44.925781 26.503906 44.886719 26.609375 C 44.847656 26.710938 44.882812 26.796875 44.964844 26.796875 C 45.050781 26.796875 45.117188 26.742188 45.117188 26.675781 C 45.117188 26.609375 45.386719 26.515625 45.714844 26.464844 C 46.042969 26.414062 46.519531 26.269531 46.773438 26.140625 C 47.164062 25.941406 47.3125 25.933594 47.714844 26.070312 C 48.664062 26.394531 49.308594 26.199219 49.195312 25.617188 C 49.148438 25.375 48.398438 25.082031 48.398438 25.304688 C 48.398438 25.375 48.519531 25.429688 48.664062 25.429688 C 49.023438 25.429688 49.109375 25.613281 48.890625 25.910156 C 48.726562 26.136719 48.652344 26.144531 48.074219 25.980469 C 47.726562 25.882812 47.441406 25.753906 47.441406 25.691406 C 47.441406 25.632812 47.570312 25.359375 47.730469 25.089844 C 47.890625 24.820312 47.992188 24.566406 47.957031 24.53125 C 47.917969 24.492188 47.8125 24.644531 47.722656 24.863281 M 48.398438 24.785156 C 48.398438 24.917969 48.488281 24.972656 48.640625 24.929688 C 48.863281 24.871094 51.941406 25.332031 52.535156 25.511719 C 52.664062 25.550781 52.773438 25.53125 52.773438 25.460938 C 52.773438 25.394531 51.988281 25.203125 51.03125 25.035156 C 48.21875 24.539062 48.398438 24.554688 48.398438 24.785156 M 45.800781 27.6875 C 45.988281 27.792969 46.203125 27.882812 46.28125 27.882812 C 46.355469 27.882812 46.261719 27.792969 46.074219 27.6875 C 45.886719 27.578125 45.671875 27.488281 45.59375 27.488281 C 45.519531 27.488281 45.613281 27.578125 45.800781 27.6875 M 44.707031 27.914062 C 44.707031 28 44.742188 28.039062 44.785156 27.996094 C 44.824219 27.953125 45.175781 28.003906 45.5625 28.105469 C 46.5 28.351562 46.570312 28.242188 45.652344 27.96875 C 44.789062 27.710938 44.707031 27.707031 44.707031 27.914062 M 39.652344 28.488281 C 38.953125 29.039062 38.347656 29.972656 38.132812 30.820312 C 37.921875 31.65625 38.042969 33.976562 38.410156 36.09375 C 38.789062 38.289062 38.925781 41.929688 38.699219 43.652344 C 38.480469 45.277344 37.976562 47.394531 37.445312 48.910156 C 37.210938 49.566406 36.996094 50.132812 36.964844 50.167969 C 36.859375 50.277344 35.539062 48.886719 35.199219 48.308594 L 34.867188 47.738281 L 35.34375 47.261719 C 35.707031 46.898438 35.820312 46.671875 35.820312 46.304688 C 35.820312 45.703125 35.308594 45.0625 34.636719 44.816406 L 34.148438 44.640625 L 34.230469 43.742188 C 34.371094 42.234375 35.390625 39.582031 36.242188 38.519531 C 36.523438 38.167969 36.589844 38.007812 36.453125 38.007812 C 36.152344 38.007812 35.601562 38.738281 35.078125 39.828125 C 34.257812 41.550781 34.015625 42.457031 33.941406 44.09375 C 33.828125 46.601562 34.378906 48.160156 35.886719 49.617188 C 36.730469 50.433594 36.933594 50.722656 36.652344 50.722656 C 36.359375 50.722656 35.09375 49.5625 34.636719 48.871094 C 34.074219 48.023438 33.859375 47.859375 34.332031 48.636719 C 34.839844 49.480469 35.816406 50.5625 36.226562 50.742188 C 36.605469 50.910156 36.609375 50.917969 36.394531 51.363281 L 36.179688 51.816406 L 35.007812 51.8125 C 34.363281 51.8125 33.007812 51.722656 31.992188 51.609375 C 30.976562 51.5 29.746094 51.417969 29.257812 51.425781 C 28.152344 51.445312 31.445312 51.765625 34.152344 51.902344 C 35.382812 51.960938 35.949219 52.042969 35.917969 52.144531 C 35.832031 52.402344 34.523438 52.390625 31.761719 52.097656 C 30.296875 51.941406 28.933594 51.824219 28.734375 51.832031 C 27.9375 51.867188 33.230469 52.453125 35.03125 52.53125 L 35.675781 52.558594 L 35.46875 52.90625 C 35.296875 53.1875 35.324219 53.175781 35.609375 52.84375 C 36.546875 51.746094 37.589844 49.535156 38.191406 47.375 C 38.933594 44.691406 39.03125 43.96875 39.03125 41.152344 C 39.03125 38.773438 38.984375 38.183594 38.574219 35.683594 C 37.871094 31.398438 38.0625 30.121094 39.609375 28.707031 C 40.472656 27.921875 40.488281 27.824219 39.652344 28.488281 M 46.496094 28.351562 C 46.636719 28.476562 47.441406 28.847656 47.441406 28.785156 C 47.441406 28.707031 46.683594 28.300781 46.535156 28.300781 C 46.484375 28.300781 46.464844 28.324219 46.496094 28.351562 M 40.496094 28.730469 C 40.25 28.890625 40.074219 29.042969 40.105469 29.078125 C 40.136719 29.109375 40.394531 28.976562 40.675781 28.785156 C 41.292969 28.367188 41.136719 28.320312 40.496094 28.730469 M 47.921875 28.730469 C 49.542969 29.949219 50.714844 32.078125 51.828125 35.820312 L 52.542969 38.210938 L 52.574219 40.84375 C 52.59375 42.292969 52.566406 43.503906 52.511719 43.539062 C 52.457031 43.570312 52.140625 43.5 51.808594 43.378906 C 51.367188 43.21875 50.753906 43.164062 49.550781 43.175781 C 46.710938 43.199219 44.984375 43.730469 43.753906 44.960938 C 42.367188 46.347656 41.515625 48.074219 40.746094 51.035156 C 40.234375 53.023438 40.195312 52.976562 42.390625 52.976562 C 43.792969 52.976562 44.015625 53.007812 43.9375 53.183594 C 43.890625 53.296875 43.746094 53.722656 43.613281 54.128906 C 43.351562 54.953125 43.378906 54.9375 41.21875 55.472656 C 39.707031 55.851562 32.296875 55.773438 32.921875 55.386719 C 33.003906 55.335938 32.078125 55.121094 30.859375 54.910156 C 27.132812 54.265625 24.683594 53.753906 23.875 53.453125 C 23.261719 53.222656 22.992188 53.015625 22.5625 52.457031 L 22.019531 51.75 L 22.734375 51.667969 L 23.445312 51.585938 L 22.730469 51.566406 C 21.605469 51.53125 21.875 51.269531 23.039062 51.269531 C 23.859375 51.269531 24.0625 51.226562 24.0625 51.0625 C 24.0625 50.917969 23.902344 50.855469 23.515625 50.84375 C 23.214844 50.832031 22.90625 50.808594 22.832031 50.789062 C 22.757812 50.773438 22.632812 50.75 22.558594 50.738281 C 22.484375 50.730469 22.421875 50.660156 22.421875 50.582031 C 22.421875 50.492188 22.832031 50.453125 23.542969 50.476562 C 24.652344 50.515625 24.671875 50.523438 24.980469 50.980469 C 25.386719 51.589844 25.375 51.652344 24.847656 51.71875 C 24.464844 51.765625 24.480469 51.777344 24.984375 51.792969 C 25.304688 51.804688 25.566406 51.78125 25.566406 51.742188 C 25.566406 51.523438 24.996094 50.609375 24.675781 50.3125 C 24.476562 50.125 24.167969 49.695312 23.992188 49.355469 C 23.820312 49.015625 23.515625 48.585938 23.3125 48.398438 C 22.96875 48.078125 22.855469 48.054688 21.457031 48.054688 C 20.210938 48.054688 20.042969 48.082031 20.410156 48.203125 C 20.914062 48.375 21.09375 48.878906 20.6875 48.984375 C 20.460938 49.046875 20.460938 49.050781 20.679688 49.066406 C 20.808594 49.074219 20.917969 49.140625 20.917969 49.210938 C 20.917969 49.277344 21.023438 49.441406 21.152344 49.570312 C 21.375 49.792969 21.339844 49.800781 20.570312 49.707031 C 18.347656 49.4375 14.800781 48.511719 14.570312 48.140625 C 14.492188 48.015625 15.230469 45.183594 15.515625 44.515625 C 15.910156 43.585938 16.941406 42.152344 17.914062 41.167969 C 19.039062 40.03125 20.617188 39.175781 22.039062 38.933594 C 22.835938 38.796875 23.011719 38.804688 23.496094 39.023438 C 23.800781 39.160156 24.335938 39.558594 24.6875 39.90625 C 26.1875 41.382812 26.695312 43.851562 26.035156 46.414062 C 25.980469 46.628906 25.992188 46.644531 26.09375 46.484375 C 26.164062 46.371094 26.300781 45.804688 26.398438 45.226562 C 26.832031 42.621094 25.820312 40.078125 23.9375 39.054688 C 23.363281 38.742188 23.097656 38.679688 22.453125 38.707031 C 22.023438 38.726562 21.675781 38.71875 21.683594 38.683594 C 21.6875 38.648438 21.738281 38.386719 21.792969 38.101562 C 21.914062 37.464844 22.304688 37.449219 22.4375 38.078125 C 22.515625 38.429688 22.527344 38.4375 22.542969 38.160156 C 22.558594 37.832031 22.5625 37.832031 23.730469 37.921875 C 24.734375 37.996094 27.453125 37.921875 32.558594 37.675781 C 33.210938 37.640625 33.773438 37.648438 33.808594 37.683594 C 33.847656 37.722656 34.570312 37.757812 35.414062 37.765625 C 37.101562 37.785156 37.324219 37.683594 37.324219 36.914062 C 37.324219 35.488281 36.171875 33.949219 34.652344 33.355469 C 33.875 33.046875 33.660156 33.03125 30.078125 33 C 28.011719 32.984375 25.550781 32.914062 24.609375 32.84375 C 22.992188 32.730469 22.0625 32.742188 21.363281 32.890625 C 21.195312 32.925781 20.886719 33.207031 20.683594 33.515625 C 20.351562 34.019531 20.3125 34.199219 20.308594 35.324219 L 20.304688 36.570312 L 20.953125 36.914062 C 21.757812 37.339844 21.796875 37.515625 21.019531 37.246094 C 20.09375 36.917969 19.019531 36.207031 18.878906 35.828125 C 18.769531 35.527344 18.75 35.515625 18.742188 35.761719 C 18.734375 35.914062 18.898438 36.203125 19.105469 36.402344 C 19.472656 36.75 20.832031 37.457031 21.140625 37.460938 C 21.4375 37.460938 21.574219 37.804688 21.484375 38.328125 C 21.40625 38.800781 21.332031 38.878906 20.761719 39.097656 C 19.25 39.667969 17.671875 40.894531 16.675781 42.273438 C 16.316406 42.769531 16.21875 42.820312 15.597656 42.855469 C 14.710938 42.902344 14.300781 43.183594 14.011719 43.945312 C 13.722656 44.695312 13.808594 45.085938 14.375 45.640625 L 14.808594 46.066406 L 14.503906 47.335938 C 14.136719 48.839844 13.589844 50.136719 13.238281 50.324219 C 12.675781 50.625 13.042969 50.707031 14.640625 50.625 L 16.292969 50.542969 L 16.246094 50.871094 C 16.207031 51.160156 16.113281 51.210938 15.515625 51.269531 C 14.851562 51.335938 14.835938 51.347656 14.878906 51.75 C 14.933594 52.230469 15.421875 52.699219 16.109375 52.925781 C 16.949219 53.203125 18.730469 53.554688 18.730469 53.445312 C 18.730469 53.386719 18.375 53.269531 17.945312 53.183594 C 16.640625 52.921875 15.71875 52.597656 15.371094 52.273438 C 14.894531 51.832031 14.9375 51.542969 15.484375 51.542969 C 16.34375 51.539062 16.566406 51.414062 16.472656 50.988281 C 16.359375 50.46875 16.691406 49.871094 17.203125 49.679688 C 17.789062 49.460938 17.828125 49.585938 17.359375 50.15625 C 17.136719 50.425781 16.953125 50.695312 16.953125 50.753906 C 16.953125 50.8125 17.332031 50.859375 17.796875 50.859375 C 18.828125 50.859375 19.648438 51.21875 20.234375 51.929688 C 20.460938 52.203125 20.644531 52.488281 20.644531 52.5625 C 20.644531 52.636719 20.453125 52.46875 20.222656 52.183594 C 19.5625 51.382812 18.933594 51.128906 17.675781 51.152344 L 16.609375 51.171875 L 17.789062 51.269531 C 18.675781 51.339844 19.074219 51.4375 19.386719 51.660156 C 19.902344 52.027344 20.460938 52.679688 20.578125 53.054688 C 20.707031 53.453125 20.25 55.101562 19.90625 55.488281 C 19.644531 55.78125 19.535156 55.804688 18.730469 55.742188 C 18.242188 55.707031 17.71875 55.632812 17.570312 55.585938 C 17.296875 55.496094 17.296875 55.496094 17.5625 55.671875 C 17.710938 55.769531 18.148438 56.171875 18.535156 56.566406 C 19.28125 57.324219 19.980469 57.703125 20.605469 57.683594 C 21.046875 57.671875 20.925781 57.617188 20.191406 57.492188 C 19.875 57.441406 19.460938 57.21875 19.132812 56.917969 C 18.289062 56.160156 18.457031 56.003906 19.515625 56.558594 C 20.328125 56.980469 20.523438 57.03125 21.125 56.960938 C 21.773438 56.886719 22.152344 56.632812 22.324219 56.15625 C 22.355469 56.0625 22.421875 56.019531 22.464844 56.058594 C 22.640625 56.21875 21.734375 57.523438 21.183594 57.90625 C 20.703125 58.238281 20.460938 58.3125 19.8125 58.3125 C 19.140625 58.3125 18.957031 58.25 18.503906 57.886719 C 17.871094 57.375 17.574219 56.890625 17.152344 55.683594 C 16.894531 54.941406 16.742188 54.71875 16.335938 54.472656 C 16.0625 54.308594 15.660156 54 15.441406 53.789062 C 15.214844 53.574219 15.039062 53.484375 15.039062 53.582031 C 15.039062 53.78125 15.972656 54.6875 16.175781 54.6875 C 16.246094 54.6875 16.269531 54.863281 16.226562 55.078125 C 16.09375 55.730469 16.390625 57.304688 16.8125 58.207031 C 17.328125 59.308594 18.324219 60.3125 19.203125 60.613281 C 20.539062 61.066406 22.390625 60.816406 23.664062 60.007812 C 24.769531 59.304688 25.324219 58.378906 25.914062 56.238281 C 25.945312 56.125 26.472656 56.082031 27.710938 56.101562 C 29.203125 56.121094 29.464844 56.15625 29.5 56.34375 C 29.527344 56.476562 29.429688 56.597656 29.265625 56.640625 C 28.9375 56.726562 28.871094 57.285156 29.1875 57.285156 C 29.300781 57.285156 29.394531 57.222656 29.394531 57.148438 C 29.394531 57.074219 29.484375 57.011719 29.59375 57.011719 C 29.800781 57.011719 30.289062 58.4375 30.382812 59.304688 C 30.410156 59.550781 30.460938 59.765625 30.492188 59.78125 C 30.527344 59.800781 30.8125 59.726562 31.128906 59.625 C 31.65625 59.449219 31.746094 59.457031 32.261719 59.730469 C 32.695312 59.953125 32.886719 59.988281 33.09375 59.878906 C 33.734375 59.535156 33.210938 58.925781 32.28125 58.925781 C 31.570312 58.925781 31.265625 58.703125 30.84375 57.867188 C 30.617188 57.421875 30.617188 57.421875 30.964844 57.421875 C 31.433594 57.421875 31.398438 57.242188 30.824219 56.769531 L 30.339844 56.367188 L 31.679688 56.21875 C 32.496094 56.125 34.054688 56.097656 35.691406 56.148438 C 39.007812 56.253906 41.296875 55.988281 43.097656 55.296875 C 43.308594 55.21875 43.324219 55.292969 43.25 56.074219 C 43.003906 58.753906 44.34375 62.007812 46.257812 63.347656 C 47.460938 64.195312 48.125 64.421875 49.628906 64.496094 C 53.363281 64.683594 56.386719 62.367188 57.15625 58.71875 C 57.398438 57.585938 57.355469 55.207031 57.078125 54.128906 C 56.757812 52.894531 55.894531 51.304688 55.058594 50.410156 L 54.34375 49.648438 L 55.742188 49.605469 C 57.476562 49.550781 57.574219 49.476562 57.234375 48.496094 C 56.699219 46.957031 55.25 45.222656 53.621094 44.164062 L 52.945312 43.726562 L 52.847656 41.21875 C 52.746094 38.65625 52.625 37.894531 51.886719 35.203125 C 51.441406 33.578125 50.882812 32.136719 50.304688 31.113281 C 49.886719 30.371094 48.402344 28.855469 47.816406 28.570312 C 47.625 28.476562 47.664062 28.539062 47.921875 28.730469 M 48.394531 29.566406 C 48.960938 30.167969 49.082031 30.277344 49.082031 30.175781 C 49.082031 30.152344 48.789062 29.859375 48.433594 29.527344 L 47.78125 28.914062 L 48.394531 29.566406 M 22.351562 33.222656 C 23.101562 33.46875 26.277344 33.652344 29.082031 33.613281 C 31.804688 33.574219 31.847656 33.578125 32.179688 33.890625 C 32.632812 34.3125 33.039062 35.304688 33.15625 36.261719 C 33.214844 36.730469 33.308594 37.011719 33.390625 36.964844 C 33.742188 36.746094 33.15625 34.613281 32.578125 34.011719 C 32.378906 33.804688 32.25 33.605469 32.289062 33.566406 C 32.421875 33.429688 34.542969 33.875 35.078125 34.152344 C 35.375 34.300781 35.75 34.570312 35.914062 34.746094 C 36.371094 35.234375 36.769531 36.230469 36.773438 36.878906 C 36.777344 37.199219 36.839844 37.460938 36.914062 37.460938 C 36.988281 37.460938 37.050781 37.207031 37.050781 36.894531 C 37.050781 35.046875 35.820312 33.796875 33.632812 33.421875 C 33.292969 33.367188 31.203125 33.308594 28.984375 33.296875 C 26.765625 33.28125 24.273438 33.230469 23.445312 33.179688 C 22.386719 33.113281 22.0625 33.125 22.351562 33.222656 M 32.828125 38.246094 C 32.816406 38.5 32.882812 38.554688 33.210938 38.554688 C 33.769531 38.554688 34.042969 38.425781 34.039062 38.164062 C 34.035156 37.964844 34.019531 37.964844 33.894531 38.179688 C 33.8125 38.320312 33.59375 38.417969 33.363281 38.417969 C 33.101562 38.417969 32.949219 38.335938 32.90625 38.179688 C 32.859375 38 32.839844 38.015625 32.828125 38.246094 M 35.203125 38.453125 L 34.988281 38.898438 L 35.265625 38.574219 C 35.421875 38.394531 35.546875 38.195312 35.546875 38.128906 C 35.546875 37.890625 35.414062 38.015625 35.203125 38.453125 M 30.28125 39.820312 L 29.328125 40.8125 L 30.316406 39.855469 C 31.238281 38.972656 31.371094 38.828125 31.269531 38.828125 C 31.25 38.828125 30.804688 39.273438 30.28125 39.820312 M 34.558594 39.546875 C 34.253906 40.011719 33.746094 41.035156 33.792969 41.085938 C 33.816406 41.109375 34.066406 40.703125 34.34375 40.183594 C 34.847656 39.246094 34.941406 38.953125 34.558594 39.546875 M 49.800781 41.109375 C 49.929688 41.144531 50.148438 41.144531 50.277344 41.109375 C 50.410156 41.074219 50.300781 41.046875 50.039062 41.046875 C 49.777344 41.046875 49.667969 41.074219 49.800781 41.109375 M 49.585938 42.261719 C 49.449219 42.34375 49.171875 42.371094 48.96875 42.324219 C 48.695312 42.257812 48.65625 42.273438 48.808594 42.375 C 49.109375 42.578125 49.570312 42.550781 49.765625 42.3125 C 49.964844 42.074219 49.925781 42.0625 49.585938 42.261719 M 15.082031 43.082031 C 14.457031 43.261719 14.082031 43.800781 14.082031 44.519531 C 14.082031 45.078125 14.425781 45.675781 14.730469 45.65625 C 14.789062 45.652344 15.109375 45.085938 15.445312 44.390625 C 15.78125 43.699219 16.078125 43.089844 16.105469 43.03125 C 16.171875 42.898438 15.628906 42.921875 15.082031 43.082031 M 47.921875 43.417969 C 47.769531 43.449219 47.308594 43.546875 46.894531 43.632812 C 44.800781 44.054688 43.101562 45.597656 42.070312 48.027344 C 41.433594 49.519531 40.601562 52.546875 40.792969 52.667969 C 40.878906 52.722656 41.457031 52.769531 42.082031 52.769531 C 43.210938 52.773438 43.21875 52.769531 43.449219 52.351562 C 44.039062 51.277344 44.527344 50.660156 45.171875 50.183594 C 46.355469 49.300781 46.414062 49.292969 51.976562 49.289062 C 54.734375 49.289062 57.03125 49.246094 57.082031 49.195312 C 57.308594 48.964844 56.148438 46.984375 55.203125 45.992188 C 53.269531 43.957031 52.265625 43.480469 49.765625 43.402344 C 48.902344 43.375 48.070312 43.382812 47.921875 43.417969 M 34.089844 45.136719 C 34.136719 45.3125 34.175781 45.527344 34.179688 45.613281 C 34.179688 45.699219 34.363281 45.804688 34.589844 45.847656 C 34.816406 45.894531 35 45.996094 35 46.074219 C 35 46.175781 34.917969 46.175781 34.734375 46.078125 C 34.164062 45.773438 34.136719 45.957031 34.574219 47.070312 C 34.699219 47.386719 34.765625 47.429688 34.980469 47.316406 C 35.121094 47.238281 35.3125 46.988281 35.410156 46.757812 C 35.730469 45.980469 35.261719 45.179688 34.332031 44.90625 C 34.039062 44.824219 34.011719 44.847656 34.089844 45.136719 M 25.523438 47.648438 C 25.398438 47.910156 25.324219 48.125 25.359375 48.125 C 25.453125 48.125 25.867188 47.289062 25.804688 47.226562 C 25.777344 47.195312 25.648438 47.386719 25.523438 47.648438 M 21.117188 48.390625 C 21.230469 48.570312 22.605469 48.835938 23.136719 48.777344 L 23.585938 48.726562 L 23.074219 48.492188 C 22.539062 48.25 20.980469 48.164062 21.117188 48.390625 M 14.539062 49.019531 C 14.417969 49.339844 14.550781 49.378906 14.738281 49.074219 C 14.84375 48.90625 14.851562 48.808594 14.761719 48.808594 C 14.683594 48.808594 14.582031 48.902344 14.539062 49.019531 M 21.121094 49.085938 C 20.949219 49.363281 21.238281 49.480469 22.398438 49.609375 C 23.023438 49.679688 23.570312 49.773438 23.617188 49.820312 C 23.660156 49.863281 23.261719 49.902344 22.726562 49.902344 C 22.191406 49.902344 21.714844 49.964844 21.671875 50.039062 C 21.617188 50.125 22.011719 50.175781 22.753906 50.175781 C 23.703125 50.175781 23.925781 50.136719 23.925781 49.96875 C 23.925781 49.542969 23.4375 49.265625 22.542969 49.179688 C 22.0625 49.136719 21.566406 49.058594 21.441406 49.011719 C 21.320312 48.964844 21.175781 48.996094 21.121094 49.085938 M 38.304688 49.292969 C 38.074219 49.796875 38.117188 49.902344 38.367188 49.445312 C 38.480469 49.234375 38.550781 49.03125 38.519531 49 C 38.488281 48.96875 38.390625 49.101562 38.304688 49.292969 M 37.53125 50.859375 C 37.339844 51.234375 37.214844 51.542969 37.25 51.542969 C 37.289062 51.542969 37.476562 51.234375 37.664062 50.859375 C 37.855469 50.484375 37.980469 50.175781 37.945312 50.175781 C 37.90625 50.175781 37.71875 50.484375 37.53125 50.859375 M 52.820312 50.921875 C 52.90625 51.144531 52.890625 51.148438 52.683594 50.980469 C 52.476562 50.8125 52.460938 50.820312 52.535156 51.023438 C 52.597656 51.1875 52.566406 51.234375 52.425781 51.179688 C 52.316406 51.136719 52.261719 51.050781 52.304688 50.980469 C 52.34375 50.914062 52.3125 50.859375 52.234375 50.859375 C 52.15625 50.859375 52.089844 50.921875 52.089844 50.996094 C 52.089844 51.070312 51.996094 51.132812 51.882812 51.132812 C 51.601562 51.132812 51.613281 51.160156 52.207031 52.011719 C 52.5 52.429688 52.816406 52.953125 52.910156 53.179688 C 53.003906 53.40625 53.117188 53.589844 53.164062 53.585938 C 53.394531 53.570312 54.339844 52.9375 54.292969 52.828125 C 53.847656 51.742188 53.558594 51.261719 53.175781 50.992188 C 52.785156 50.710938 52.738281 50.703125 52.820312 50.921875 M 53.65625 50.980469 C 53.800781 51.148438 53.9375 51.355469 53.953125 51.445312 C 53.96875 51.539062 54.203125 52.101562 54.472656 52.703125 C 54.742188 53.304688 55 54.027344 55.046875 54.308594 C 55.09375 54.589844 55.171875 54.796875 55.21875 54.765625 C 55.332031 54.695312 55.375 55.257812 55.398438 57.148438 C 55.425781 59.433594 54.9375 61.035156 53.9375 61.914062 C 53.667969 62.148438 53.503906 62.34375 53.570312 62.34375 C 53.792969 62.34375 54.429688 61.769531 54.976562 61.078125 C 55.433594 60.5 55.488281 60.363281 55.339844 60.175781 C 55.1875 59.976562 55.195312 59.972656 55.394531 60.128906 C 55.597656 60.289062 55.652344 60.179688 55.925781 58.992188 C 56.164062 57.953125 56.210938 57.433594 56.152344 56.492188 C 56.070312 55.210938 55.714844 53.808594 55.5 53.941406 C 55.378906 54.015625 55.308594 53.820312 55.359375 53.542969 C 55.398438 53.328125 55.078125 52.496094 54.976562 52.558594 C 54.925781 52.589844 54.871094 52.5 54.859375 52.355469 C 54.835938 52.015625 54.222656 51.21875 53.757812 50.917969 L 53.390625 50.679688 L 53.65625 50.980469 M 54.550781 51.097656 C 54.550781 51.183594 54.609375 51.289062 54.683594 51.335938 C 54.84375 51.433594 55.339844 52.503906 55.574219 53.25 L 55.742188 53.792969 L 55.957031 53.375 C 56.164062 52.972656 56.160156 52.933594 55.808594 52.402344 C 55.355469 51.722656 54.550781 50.886719 54.550781 51.097656 M 26.164062 51.476562 C 26.121094 51.585938 25.984375 51.683594 25.859375 51.691406 C 25.6875 51.699219 25.679688 51.71875 25.828125 51.777344 C 25.933594 51.820312 26.089844 51.757812 26.175781 51.640625 C 26.265625 51.523438 26.578125 51.402344 26.875 51.371094 L 27.414062 51.316406 L 26.828125 51.292969 C 26.417969 51.277344 26.21875 51.332031 26.164062 51.476562 M 52.65625 51.425781 C 52.402344 51.5 52.230469 51.59375 52.273438 51.636719 C 52.386719 51.746094 53.296875 51.554688 53.390625 51.402344 C 53.488281 51.242188 53.269531 51.25 52.65625 51.425781 M 15.859375 51.941406 C 16.847656 52.117188 18.558594 52.234375 18.25 52.105469 C 18.101562 52.042969 17.363281 51.953125 16.609375 51.910156 C 15.746094 51.863281 15.46875 51.875 15.859375 51.941406 M 47.761719 52.003906 C 46.941406 52.273438 46.441406 52.671875 45.882812 53.511719 C 44.585938 55.46875 44.757812 58.769531 46.242188 60.378906 C 47.035156 61.242188 47.800781 61.566406 48.871094 61.5 C 49.96875 61.429688 50.882812 60.898438 51.507812 59.96875 C 52.128906 59.039062 52.296875 58.375 52.289062 56.804688 C 52.285156 55.714844 52.21875 55.28125 51.972656 54.652344 C 51.148438 52.574219 49.398438 51.472656 47.761719 52.003906 M 14.980469 52.621094 C 14.824219 52.875 15.226562 53.308594 15.992188 53.714844 C 16.824219 54.15625 18.230469 54.605469 18.492188 54.511719 C 18.585938 54.480469 18.308594 54.375 17.878906 54.277344 C 16.921875 54.058594 15.570312 53.335938 15.367188 52.929688 C 15.160156 52.519531 15.082031 52.457031 14.980469 52.621094 M 47.703125 53.277344 C 47.183594 53.746094 46.484375 54.878906 46.484375 55.25 C 46.484375 55.339844 46.671875 55.035156 46.902344 54.574219 C 47.136719 54.109375 47.574219 53.523438 47.886719 53.253906 C 48.195312 52.988281 48.40625 52.773438 48.355469 52.773438 C 48.304688 52.773438 48.011719 53 47.703125 53.277344 M 49.828125 53.207031 C 49.523438 53.273438 49.039062 53.519531 48.75 53.757812 C 48.171875 54.234375 47.433594 55.300781 47.453125 55.636719 C 47.457031 55.753906 47.554688 55.640625 47.667969 55.382812 C 47.777344 55.128906 48.03125 54.710938 48.226562 54.453125 C 48.929688 53.53125 50.378906 53.125 51.023438 53.667969 L 51.335938 53.9375 L 51.066406 53.613281 C 50.671875 53.152344 50.449219 53.078125 49.828125 53.207031 M 54.277344 53.144531 C 54.277344 53.230469 54.0625 53.371094 53.796875 53.457031 C 53.535156 53.542969 53.320312 53.660156 53.320312 53.71875 C 53.320312 53.777344 53.445312 54.304688 53.59375 54.890625 C 53.742188 55.480469 53.867188 56.167969 53.867188 56.417969 C 53.867188 56.859375 54.035156 57.019531 54.207031 56.742188 C 54.25 56.667969 54.507812 56.503906 54.773438 56.378906 C 55.25 56.152344 55.257812 56.140625 55.164062 55.519531 C 55.039062 54.671875 55.003906 54.640625 54.539062 54.96875 C 54.316406 55.125 54.0625 55.230469 53.96875 55.199219 C 53.875 55.167969 54.015625 55.03125 54.277344 54.894531 C 54.925781 54.5625 54.972656 54.453125 54.722656 53.808594 C 54.492188 53.210938 54.277344 52.890625 54.277344 53.144531 M 20.652344 53.964844 C 20.558594 54.324219 20.460938 54.691406 20.433594 54.777344 C 20.410156 54.863281 20.472656 55.046875 20.578125 55.1875 C 20.820312 55.511719 21.117188 55.34375 21.515625 54.660156 L 21.804688 54.15625 L 21.519531 53.773438 C 21.066406 53.167969 20.84375 53.214844 20.652344 53.964844 M 35.398438 54 C 34.71875 54.808594 34.28125 55.117188 33.632812 55.246094 L 33.15625 55.339844 L 33.640625 55.355469 C 34.1875 55.371094 34.90625 54.847656 35.6875 53.863281 C 36.300781 53.085938 36.082031 53.191406 35.398438 54 M 56.082031 53.660156 C 55.964844 53.910156 55.976562 54.152344 56.117188 54.648438 C 56.414062 55.671875 56.519531 57.570312 56.328125 58.40625 C 55.898438 60.289062 55.507812 61.128906 54.632812 62.058594 L 53.9375 62.800781 L 54.515625 62.359375 C 55.359375 61.710938 56.015625 60.890625 56.117188 60.351562 C 56.164062 60.09375 56.269531 59.882812 56.347656 59.882812 C 56.429688 59.882812 56.457031 59.789062 56.414062 59.679688 C 56.371094 59.566406 56.390625 59.472656 56.460938 59.472656 C 56.527344 59.472656 56.589844 59.363281 56.597656 59.234375 C 56.601562 59.101562 56.675781 58.316406 56.761719 57.488281 C 56.917969 55.949219 56.824219 54.464844 56.59375 54.835938 C 56.519531 54.957031 56.503906 54.828125 56.558594 54.496094 C 56.613281 54.148438 56.59375 53.992188 56.507812 54.046875 C 56.421875 54.097656 56.390625 54.003906 56.429688 53.8125 C 56.515625 53.363281 56.265625 53.257812 56.082031 53.660156 M 26.933594 54.617188 C 27.195312 54.71875 27.65625 54.800781 27.960938 54.800781 C 28.46875 54.796875 28.449219 54.78125 27.6875 54.609375 C 26.648438 54.378906 26.3125 54.378906 26.933594 54.617188 M 28.445312 55.132812 C 28.554688 55.226562 28.757812 55.425781 28.902344 55.578125 C 29.152344 55.84375 29.152344 55.839844 28.90625 55.40625 C 28.765625 55.160156 28.5625 54.960938 28.449219 54.960938 C 28.273438 54.960938 28.273438 54.984375 28.445312 55.132812 M 24.261719 55.269531 C 24.210938 55.398438 24.070312 55.453125 23.882812 55.414062 C 23.640625 55.359375 23.625 55.375 23.789062 55.492188 C 23.902344 55.574219 24.0625 55.640625 24.152344 55.640625 C 24.320312 55.644531 24.523438 55.238281 24.410156 55.125 C 24.375 55.089844 24.304688 55.152344 24.261719 55.269531 M 25.054688 55.371094 C 25.085938 55.488281 25.28125 55.585938 25.507812 55.597656 C 25.851562 55.617188 25.859375 55.609375 25.566406 55.550781 C 25.378906 55.511719 25.171875 55.410156 25.113281 55.324219 C 25.035156 55.21875 25.015625 55.234375 25.054688 55.371094 M 47.351562 56.875 C 47.351562 57.4375 47.375 57.667969 47.402344 57.386719 C 47.433594 57.105469 47.433594 56.644531 47.402344 56.363281 C 47.375 56.082031 47.351562 56.3125 47.351562 56.875 M 48.109375 56.703125 C 47.941406 56.917969 47.945312 56.925781 48.140625 56.769531 C 48.265625 56.675781 48.480469 56.632812 48.621094 56.679688 C 48.832031 56.75 48.839844 56.738281 48.671875 56.617188 C 48.394531 56.417969 48.324219 56.425781 48.109375 56.703125 M 49.289062 57 C 49.238281 57.300781 49.234375 57.613281 49.285156 57.691406 C 49.546875 58.113281 50.21875 57.519531 50.152344 56.921875 C 50.117188 56.617188 50.027344 56.523438 49.746094 56.492188 C 49.417969 56.453125 49.371094 56.503906 49.289062 57 M 54.527344 56.832031 C 53.917969 57.15625 53.890625 57.199219 53.84375 57.84375 C 53.820312 58.214844 53.828125 58.515625 53.867188 58.515625 C 53.90625 58.515625 54.257812 58.378906 54.652344 58.207031 L 55.367188 57.898438 L 55.367188 57.183594 C 55.371094 56.789062 55.324219 56.46875 55.269531 56.476562 C 55.210938 56.484375 54.878906 56.640625 54.527344 56.832031 M 49.496094 57.183594 L 49.5 57.765625 L 49.769531 57.441406 C 50.125 57.015625 50.121094 56.601562 49.765625 56.601562 C 49.535156 56.601562 49.492188 56.691406 49.496094 57.183594 M 48.023438 57.285156 C 48.082031 57.511719 48.808594 57.65625 48.808594 57.445312 C 48.808594 57.371094 48.679688 57.34375 48.519531 57.386719 C 48.355469 57.429688 48.175781 57.382812 48.101562 57.269531 C 47.988281 57.113281 47.976562 57.113281 48.023438 57.285156 M 47.507812 58.371094 C 47.613281 59.042969 48.203125 59.984375 48.675781 60.226562 C 49.03125 60.410156 49.003906 60.359375 48.472656 59.828125 C 48.089844 59.445312 47.785156 58.976562 47.652344 58.5625 C 47.488281 58.058594 47.453125 58.011719 47.507812 58.371094 M 54.425781 58.632812 C 53.78125 58.976562 53.660156 59.105469 53.503906 59.625 C 53.40625 59.957031 53.324219 60.238281 53.324219 60.257812 C 53.320312 60.273438 53.519531 60.265625 53.765625 60.238281 C 54.007812 60.210938 54.304688 60.179688 54.421875 60.171875 C 54.671875 60.152344 55.039062 59.449219 55.171875 58.734375 C 55.222656 58.464844 55.242188 58.242188 55.214844 58.242188 C 55.1875 58.242188 54.832031 58.417969 54.425781 58.632812 M 53.703125 60.527344 C 53.289062 60.574219 53.140625 60.675781 52.894531 61.085938 C 52.730469 61.363281 52.410156 61.789062 52.183594 62.027344 L 51.777344 62.464844 L 52.507812 62.273438 C 53.359375 62.046875 53.8125 61.746094 54.242188 61.113281 C 54.589844 60.605469 54.628906 60.417969 54.378906 60.453125 C 54.285156 60.464844 53.980469 60.5 53.703125 60.527344 M 52.089844 62.617188 C 51.820312 62.703125 51.808594 62.726562 52.023438 62.722656 C 52.171875 62.722656 52.480469 62.675781 52.703125 62.617188 C 53.074219 62.523438 53.082031 62.511719 52.773438 62.511719 C 52.585938 62.507812 52.277344 62.558594 52.089844 62.617188 "/>
<path style=" stroke:none;fill-rule:evenodd;fill:rgb(95.686275%,90.196078%,51.372549%);fill-opacity:1;" d="M 32.0625 11.765625 C 31.316406 11.984375 30.65625 12.660156 30.402344 13.464844 C 29.578125 16.082031 32.46875 18.257812 34.710938 16.703125 C 34.863281 16.597656 34.828125 16.476562 34.503906 16.050781 C 34.289062 15.765625 34.199219 15.582031 34.304688 15.648438 C 34.429688 15.726562 34.464844 15.714844 34.402344 15.613281 C 34.351562 15.53125 34.21875 15.496094 34.113281 15.535156 C 33.984375 15.585938 33.886719 15.488281 33.828125 15.25 C 33.683594 14.679688 33.882812 14.667969 34.382812 15.214844 C 34.640625 15.496094 34.910156 15.722656 34.988281 15.722656 C 35.0625 15.722656 35.164062 15.507812 35.214844 15.242188 C 35.449219 14 34.765625 12.429688 33.773438 11.929688 C 33.132812 11.605469 32.738281 11.566406 32.0625 11.765625 M 49.820312 14.75 C 48.824219 15.207031 48.382812 16.691406 48.886719 17.878906 L 49.101562 18.390625 L 49.621094 17.8125 C 49.90625 17.492188 50.175781 17.273438 50.226562 17.320312 C 50.402344 17.5 50.300781 17.777344 49.882812 18.253906 C 49.566406 18.613281 49.421875 18.699219 49.339844 18.570312 C 49.265625 18.445312 48.964844 18.644531 48.285156 19.28125 C 47.488281 20.027344 47.125 20.507812 47.359375 20.507812 C 47.386719 20.507812 47.808594 20.097656 48.296875 19.597656 C 49.167969 18.703125 49.183594 18.691406 49.503906 18.914062 C 50.125 19.347656 51.128906 19.136719 51.765625 18.4375 C 52.421875 17.710938 52.507812 16.394531 51.957031 15.488281 C 51.4375 14.632812 50.660156 14.363281 49.820312 14.75 M 34.464844 15.785156 C 34.496094 15.816406 35.304688 16.640625 36.265625 17.609375 L 38.007812 19.371094 L 38.007812 20.082031 C 38.007812 20.472656 37.910156 21.1875 37.789062 21.671875 L 37.566406 22.550781 L 37.925781 22.976562 C 38.59375 23.773438 38.285156 24.746094 37.355469 24.746094 C 36.875 24.746094 36.722656 24.902344 36.839844 25.277344 C 36.910156 25.5 36.996094 25.515625 37.566406 25.410156 C 37.921875 25.34375 38.28125 25.199219 38.363281 25.085938 C 38.886719 24.382812 40.695312 25.398438 41.359375 26.769531 L 41.617188 27.292969 L 42.144531 27.109375 C 42.4375 27.011719 43.164062 26.917969 43.761719 26.90625 C 44.359375 26.890625 44.769531 26.832031 44.671875 26.773438 C 44.578125 26.714844 44.421875 26.664062 44.320312 26.664062 C 44.222656 26.660156 44.046875 26.566406 43.933594 26.453125 C 43.675781 26.195312 43.878906 26.191406 44.378906 26.449219 C 44.589844 26.558594 44.796875 26.613281 44.835938 26.566406 C 44.878906 26.523438 44.839844 26.460938 44.753906 26.429688 C 44.523438 26.347656 44.109375 25.957031 43.84375 25.570312 C 43.4375 24.976562 43.59375 24.96875 44.160156 25.550781 C 44.707031 26.113281 44.953125 26.195312 45.867188 26.121094 C 46.953125 26.03125 47.742188 25.203125 47.960938 23.917969 C 48.015625 23.59375 48.128906 23.308594 48.214844 23.28125 C 48.4375 23.207031 48.199219 24.238281 47.800781 25.046875 C 47.535156 25.59375 47.519531 25.703125 47.695312 25.769531 C 47.804688 25.8125 47.949219 25.769531 48.007812 25.671875 C 48.109375 25.511719 48.179688 25.621094 48.140625 25.875 C 48.132812 25.929688 48.3125 25.976562 48.546875 25.976562 C 48.871094 25.976562 48.957031 25.921875 48.917969 25.738281 C 48.894531 25.605469 48.734375 25.476562 48.5625 25.453125 C 48.347656 25.421875 48.269531 25.339844 48.3125 25.179688 C 48.847656 23.25 48.859375 22.527344 48.355469 22.945312 C 48.199219 23.078125 48.121094 22.949219 47.925781 22.214844 C 47.421875 20.363281 46.523438 19.722656 44.601562 19.859375 C 43.300781 19.953125 42.207031 20.351562 41.105469 21.140625 C 39.988281 21.9375 39.3125 22.242188 38.484375 22.316406 L 37.800781 22.375 L 38.058594 21.320312 C 38.46875 19.648438 38.414062 19.523438 36.402344 17.476562 C 35.453125 16.511719 34.617188 15.722656 34.542969 15.722656 C 34.46875 15.722656 34.433594 15.75 34.464844 15.785156 M 49.632812 18.082031 L 49.3125 18.523438 L 49.746094 18.125 C 50.203125 17.699219 50.242188 17.636719 50.066406 17.636719 C 50.003906 17.636719 49.808594 17.835938 49.632812 18.082031 M 44.730469 20.304688 C 44.480469 20.414062 44.160156 20.644531 44.023438 20.8125 C 43.738281 21.164062 43.394531 22.246094 43.527344 22.378906 C 43.574219 22.429688 43.613281 22.363281 43.613281 22.234375 C 43.613281 21.933594 44.007812 20.992188 44.09375 21.082031 C 44.132812 21.117188 44.066406 21.417969 43.949219 21.75 C 43.824219 22.113281 43.800781 22.289062 43.898438 22.191406 C 43.984375 22.105469 44.148438 22.066406 44.257812 22.109375 C 44.429688 22.175781 44.433594 22.144531 44.285156 21.910156 C 44.140625 21.671875 44.148438 21.570312 44.347656 21.265625 C 44.621094 20.851562 45.34375 20.371094 45.703125 20.371094 C 46.128906 20.371094 46.757812 20.777344 47.035156 21.230469 C 47.359375 21.761719 47.363281 21.824219 47.089844 21.929688 C 46.929688 21.988281 46.898438 21.945312 46.960938 21.75 C 47.003906 21.605469 46.984375 21.453125 46.914062 21.40625 C 46.769531 21.320312 46.542969 22.390625 46.675781 22.523438 C 46.722656 22.566406 46.757812 22.488281 46.757812 22.347656 C 46.757812 21.925781 47.035156 22.320312 47.070312 22.796875 C 47.101562 23.21875 47.304688 23.28125 47.304688 22.863281 C 47.304688 22.71875 47.351562 22.6875 47.4375 22.773438 C 47.523438 22.859375 47.476562 23.292969 47.304688 23.996094 C 46.988281 25.300781 46.617188 25.703125 45.71875 25.703125 C 44.621094 25.703125 43.84375 24.855469 43.539062 23.328125 C 43.386719 22.558594 43.371094 22.535156 43.355469 23.039062 C 43.304688 24.828125 44.765625 26.292969 46.144531 25.839844 C 46.828125 25.613281 47.191406 25.15625 47.46875 24.179688 C 48.011719 22.25 47.621094 21.011719 46.25 20.320312 C 45.71875 20.050781 45.328125 20.046875 44.730469 20.304688 M 44.359375 20.703125 C 44.210938 20.808594 44.128906 20.933594 44.171875 20.976562 C 44.214844 21.019531 44.363281 20.933594 44.5 20.78125 C 44.792969 20.460938 44.730469 20.429688 44.359375 20.703125 M 36.121094 22.3125 C 35.898438 22.535156 35.914062 22.695312 36.15625 22.695312 C 36.449219 22.695312 36.777344 23.246094 36.777344 23.734375 C 36.777344 24.1875 36.554688 24.328125 35.832031 24.335938 C 35.648438 24.335938 35.539062 24.371094 35.582031 24.417969 C 35.628906 24.460938 36.191406 24.453125 36.832031 24.402344 C 37.769531 24.324219 38.015625 24.257812 38.074219 24.066406 C 38.195312 23.691406 37.933594 23.164062 37.363281 22.636719 C 36.828125 22.140625 36.40625 22.027344 36.121094 22.3125 M 44.296875 22.445312 C 44.296875 22.511719 44.433594 22.621094 44.605469 22.691406 C 44.773438 22.757812 44.832031 22.820312 44.730469 22.824219 C 44.5 22.835938 44.148438 23.183594 44.257812 23.292969 C 44.304688 23.339844 44.195312 23.378906 44.019531 23.378906 C 43.785156 23.378906 43.738281 23.421875 43.84375 23.527344 C 44.070312 23.753906 45.527344 23.425781 45.527344 23.148438 C 45.527344 23.027344 45.605469 22.96875 45.71875 23.011719 C 45.851562 23.0625 45.886719 23.007812 45.835938 22.820312 C 45.800781 22.675781 45.699219 22.554688 45.613281 22.550781 C 45.527344 22.550781 45.199219 22.496094 44.878906 22.433594 C 44.542969 22.371094 44.296875 22.375 44.296875 22.445312 M 48.671875 24.4375 C 48.671875 24.496094 49.507812 24.6875 50.527344 24.859375 C 51.550781 25.03125 52.488281 25.203125 52.613281 25.242188 C 52.804688 25.300781 52.808594 25.292969 52.636719 25.1875 C 52.523438 25.117188 51.722656 24.925781 50.859375 24.761719 C 49.996094 24.597656 49.148438 24.433594 48.980469 24.398438 C 48.808594 24.359375 48.671875 24.378906 48.671875 24.4375 M 35.660156 25.128906 C 35.636719 25.1875 35.414062 25.375 35.171875 25.546875 C 34.75 25.84375 34.570312 26.25 34.863281 26.25 C 34.9375 26.25 34.984375 26.179688 34.964844 26.09375 C 34.933594 25.953125 35.1875 25.742188 36.042969 25.199219 C 36.285156 25.042969 36.285156 25.035156 36.003906 25.027344 C 35.839844 25.023438 35.6875 25.066406 35.660156 25.128906 M 48.671875 25.15625 C 48.9375 25.328125 49.082031 25.328125 49.082031 25.15625 C 49.082031 25.082031 48.945312 25.019531 48.773438 25.023438 C 48.527344 25.023438 48.507812 25.050781 48.671875 25.15625 M 42.449219 27.347656 C 41.621094 27.511719 40.355469 28.113281 39.6875 28.65625 C 38.972656 29.246094 38.492188 30.140625 38.285156 31.277344 C 38.121094 32.195312 38.148438 32.542969 38.628906 35.617188 C 39.34375 40.199219 39.363281 42.636719 38.699219 45.648438 C 37.980469 48.921875 36.386719 52.4375 35.128906 53.523438 L 34.808594 53.796875 L 35.109375 53.28125 C 35.390625 52.792969 35.390625 52.773438 35.136719 52.910156 C 34.925781 53.023438 34.886719 53.011719 34.941406 52.863281 C 35.03125 52.632812 34.621094 52.503906 33.808594 52.5 C 33.492188 52.5 31.867188 52.34375 30.203125 52.152344 C 28.535156 51.964844 27.136719 51.839844 27.097656 51.878906 C 27.058594 51.921875 27.09375 51.953125 27.183594 51.953125 C 27.269531 51.953125 28.429688 52.109375 29.761719 52.304688 C 31.09375 52.496094 32.769531 52.710938 33.488281 52.773438 L 34.796875 52.894531 L 33.429688 52.839844 C 32.675781 52.808594 30.75 52.59375 29.148438 52.363281 C 25.285156 51.808594 22.148438 51.554688 22.148438 51.796875 C 22.148438 52.074219 23.28125 53.167969 23.765625 53.363281 C 24.90625 53.820312 33.050781 55.296875 33.726562 55.171875 C 35.125 54.90625 37.710938 51.070312 39.117188 47.167969 C 39.738281 45.445312 39.820312 45.585938 39.230469 47.351562 C 38.144531 50.59375 35.542969 54.753906 34.253906 55.316406 C 34.023438 55.414062 33.898438 55.5 33.976562 55.503906 C 34.050781 55.507812 34.925781 55.570312 35.917969 55.644531 C 37.875 55.796875 40.792969 55.574219 41.992188 55.183594 C 42.320312 55.078125 42.753906 54.953125 42.953125 54.90625 C 43.253906 54.839844 43.363281 54.691406 43.542969 54.105469 C 43.667969 53.710938 43.796875 53.3125 43.839844 53.21875 C 43.894531 53.085938 43.546875 53.046875 42.351562 53.046875 C 41.238281 53.046875 40.71875 52.992188 40.535156 52.855469 C 40.28125 52.671875 40.28125 52.644531 40.527344 51.59375 C 41.023438 49.457031 41.863281 47.292969 42.636719 46.15625 C 43.054688 45.539062 44.175781 44.429688 44.734375 44.074219 C 46.253906 43.113281 50.550781 42.757812 52.347656 43.445312 C 52.511719 43.507812 52.527344 43.277344 52.46875 41.972656 C 52.425781 41.125 52.445312 40.253906 52.503906 40.039062 C 52.671875 39.460938 52.421875 38.027344 51.800781 35.957031 C 51.066406 33.503906 50.804688 32.804688 50.152344 31.550781 C 49.570312 30.4375 48.796875 29.460938 48.089844 28.957031 C 47.851562 28.789062 48.035156 29.035156 48.492188 29.5 C 49.542969 30.566406 50.320312 32.101562 51.273438 35 C 52.253906 37.976562 52.570312 39.65625 52.25 40.160156 C 52.109375 40.382812 51.472656 39.726562 51.355469 39.238281 C 51.289062 38.96875 51.3125 38.984375 51.464844 39.316406 C 51.574219 39.546875 51.765625 39.824219 51.894531 39.929688 C 52.117188 40.113281 52.128906 40.054688 52.058594 38.964844 C 52.015625 38.324219 51.855469 37.402344 51.699219 36.914062 C 51.542969 36.425781 51.261719 35.523438 51.078125 34.914062 C 49.78125 30.671875 48.496094 29.035156 45.8125 28.210938 C 44.515625 27.816406 42.269531 28.058594 40.886719 28.75 C 40.207031 29.089844 39.863281 29.492188 39.578125 30.292969 C 39.472656 30.589844 39.386719 30.710938 39.382812 30.554688 C 39.378906 30.15625 39.835938 29.234375 40.210938 28.890625 C 40.777344 28.371094 42.140625 27.960938 43.800781 27.8125 C 44.640625 27.734375 44.84375 27.675781 44.78125 27.519531 C 44.742188 27.410156 44.707031 27.296875 44.707031 27.265625 C 44.707031 27.167969 43.035156 27.230469 42.449219 27.347656 M 45.117188 27.613281 C 45.117188 27.683594 45.414062 27.832031 45.78125 27.941406 C 46.144531 28.046875 46.695312 28.265625 47.011719 28.425781 C 47.324219 28.585938 47.578125 28.6875 47.578125 28.648438 C 47.578125 28.554688 46.652344 28.089844 45.808594 27.757812 C 45.429688 27.605469 45.117188 27.542969 45.117188 27.613281 M 44.707031 28.847656 C 44.78125 28.988281 44.84375 29.167969 44.84375 29.25 C 44.84375 29.472656 44.257812 29.421875 43.882812 29.160156 C 43.558594 28.9375 43.554688 28.941406 43.746094 29.175781 C 43.855469 29.3125 44.09375 29.480469 44.277344 29.550781 C 44.707031 29.714844 45.15625 29.347656 45.042969 28.925781 C 44.96875 28.648438 44.96875 28.648438 45.179688 28.90625 C 45.296875 29.054688 45.390625 29.117188 45.386719 29.042969 C 45.382812 28.800781 45.183594 28.628906 44.878906 28.609375 C 44.617188 28.59375 44.589844 28.628906 44.707031 28.847656 M 45.984375 30.761719 C 46.011719 30.875 46.222656 31.488281 46.457031 32.128906 C 47.070312 33.828125 47.539062 35.425781 47.90625 37.050781 L 48.230469 38.484375 L 47.949219 38.792969 C 47.792969 38.960938 47.703125 39.136719 47.75 39.179688 C 47.792969 39.226562 47.898438 39.132812 47.980469 38.976562 C 48.078125 38.792969 48.269531 38.691406 48.503906 38.691406 C 48.960938 38.691406 49.765625 39.164062 49.765625 39.425781 C 49.765625 39.695312 48.578125 39.796875 48.09375 39.570312 C 47.742188 39.410156 47.726562 39.414062 47.859375 39.660156 C 48.019531 39.960938 48.628906 40.03125 49.5625 39.855469 C 49.710938 39.828125 49.878906 39.800781 49.9375 39.796875 C 50.347656 39.753906 49.257812 38.554688 48.808594 38.554688 C 48.457031 38.554688 48.445312 38.523438 47.921875 36.46875 C 47.453125 34.632812 46.570312 31.90625 46.160156 31.035156 C 46.035156 30.773438 45.957031 30.648438 45.984375 30.761719 M 39.121094 33.222656 C 39.105469 33.515625 39.464844 35.136719 39.566406 35.238281 C 39.65625 35.328125 39.5625 34.789062 39.296875 33.703125 C 39.207031 33.324219 39.128906 33.109375 39.121094 33.222656 M 23.925781 33.378906 C 24.414062 33.453125 26.84375 33.53125 29.328125 33.546875 C 34.222656 33.582031 34.632812 33.640625 35.652344 34.40625 C 36.289062 34.890625 36.777344 35.921875 36.78125 36.808594 C 36.785156 37.394531 36.8125 37.480469 36.933594 37.273438 C 37.148438 36.902344 36.871094 35.683594 36.417969 34.996094 C 35.53125 33.660156 34.246094 33.351562 29.714844 33.386719 C 27.921875 33.402344 25.6875 33.375 24.746094 33.328125 C 23.339844 33.257812 23.195312 33.265625 23.925781 33.378906 M 32.445312 34.175781 C 32.839844 34.644531 33.078125 35.289062 33.222656 36.285156 L 33.324219 36.984375 L 33.34375 36.40625 C 33.371094 35.464844 32.664062 33.769531 32.246094 33.769531 C 32.167969 33.769531 32.257812 33.953125 32.445312 34.175781 M 19.035156 35.984375 C 19.144531 36.152344 19.597656 36.484375 20.042969 36.722656 C 21.058594 37.273438 21.765625 37.480469 20.917969 36.980469 C 20.261719 36.59375 20.070312 36.386719 20.191406 36.1875 C 20.234375 36.121094 20.183594 36.007812 20.082031 35.945312 C 19.765625 35.742188 19.617188 35.808594 19.902344 36.019531 C 20.222656 36.265625 20.140625 36.277344 19.570312 36.082031 C 19.335938 35.996094 19.140625 35.875 19.140625 35.808594 C 19.140625 35.738281 19.070312 35.683594 18.988281 35.683594 C 18.886719 35.683594 18.90625 35.789062 19.035156 35.984375 M 41.425781 36.042969 C 42.679688 36.566406 43.039062 37.097656 43.097656 38.535156 C 43.132812 39.355469 43.113281 39.417969 42.6875 39.796875 C 42.253906 40.183594 42.238281 40.351562 42.667969 40.019531 C 43.195312 39.613281 43.378906 39.121094 43.28125 38.382812 C 43.09375 36.964844 42.566406 36.210938 41.632812 36.035156 C 41.40625 35.992188 41.3125 35.992188 41.425781 36.042969 M 40.257812 36.777344 C 40.296875 37.039062 40.390625 37.734375 40.464844 38.320312 C 40.539062 38.902344 40.664062 39.5 40.742188 39.644531 C 40.945312 40.03125 41.4375 40.332031 41.832031 40.320312 C 42.152344 40.308594 42.148438 40.296875 41.757812 40.183594 C 41.097656 39.992188 40.898438 39.660156 40.730469 38.480469 C 40.644531 37.882812 40.488281 37.148438 40.382812 36.84375 L 40.1875 36.296875 L 40.257812 36.777344 M 40.777344 36.984375 C 40.777344 37.28125 40.804688 37.390625 40.839844 37.21875 C 40.871094 37.050781 40.871094 36.804688 40.835938 36.671875 C 40.800781 36.542969 40.773438 36.679688 40.777344 36.984375 M 39.957031 37.257812 C 39.957031 37.554688 39.984375 37.664062 40.019531 37.492188 C 40.050781 37.324219 40.050781 37.078125 40.015625 36.945312 C 39.980469 36.816406 39.953125 36.953125 39.957031 37.257812 M 42.089844 37.390625 C 42.039062 37.4375 41.824219 37.484375 41.609375 37.488281 L 41.21875 37.5 L 41.234375 38.441406 C 41.242188 38.957031 41.289062 39.421875 41.335938 39.46875 C 41.386719 39.519531 41.425781 39.269531 41.425781 38.917969 C 41.425781 38.570312 41.472656 38.28125 41.527344 38.28125 C 41.585938 38.28125 41.632812 38.605469 41.632812 38.996094 C 41.632812 39.578125 41.675781 39.722656 41.875 39.761719 C 42.285156 39.839844 42.519531 39.523438 42.507812 38.914062 C 42.496094 38.261719 42.21875 37.257812 42.089844 37.390625 M 51.097656 38.09375 C 51.136719 38.460938 51.191406 38.785156 51.21875 38.816406 C 51.328125 38.941406 51.257812 37.789062 51.144531 37.613281 C 51.070312 37.496094 51.054688 37.683594 51.097656 38.09375 M 51.652344 38.445312 C 51.683594 38.917969 51.769531 39.398438 51.839844 39.511719 C 51.925781 39.644531 51.9375 39.40625 51.882812 38.832031 C 51.769531 37.664062 51.574219 37.339844 51.652344 38.445312 M 21.804688 38.15625 C 21.699219 38.632812 21.769531 38.761719 22.074219 38.644531 C 22.347656 38.539062 22.363281 37.734375 22.089844 37.734375 C 21.984375 37.734375 21.855469 37.921875 21.804688 38.15625 M 29.1875 37.894531 C 28.136719 37.960938 26.25 38 24.996094 37.976562 C 22.722656 37.941406 22.714844 37.941406 22.65625 38.246094 C 22.613281 38.460938 22.664062 38.554688 22.816406 38.554688 C 23.269531 38.558594 24.46875 39.234375 25.007812 39.789062 C 26.609375 41.4375 27.011719 44.339844 26.003906 46.9375 C 25.605469 47.957031 24.605469 49.492188 24.332031 49.492188 C 24.261719 49.492188 24.417969 49.207031 24.6875 48.855469 C 25.367188 47.964844 25.679688 47.304688 25.984375 46.109375 C 26.746094 43.136719 25.738281 40.203125 23.613281 39.1875 C 22.964844 38.875 22.824219 38.859375 22.09375 38.980469 C 20.429688 39.253906 18.917969 40.125 17.59375 41.574219 C 16.242188 43.058594 15.527344 44.363281 15.03125 46.257812 C 14.800781 47.148438 14.640625 47.960938 14.679688 48.058594 C 14.84375 48.488281 20.558594 49.894531 20.871094 49.585938 C 21.054688 49.402344 20.617188 49.117188 19.898438 48.957031 C 19.484375 48.867188 19.105469 48.726562 19.058594 48.648438 C 19.003906 48.5625 19.070312 48.535156 19.226562 48.582031 C 19.367188 48.625 19.667969 48.699219 19.890625 48.746094 C 20.117188 48.792969 20.398438 48.859375 20.511719 48.890625 C 20.644531 48.925781 20.730469 48.847656 20.742188 48.679688 C 20.761719 48.410156 20.445312 48.253906 19.445312 48.054688 C 19.203125 48.007812 19.03125 47.917969 19.070312 47.855469 C 19.105469 47.796875 19.554688 47.824219 20.0625 47.921875 C 20.570312 48.019531 21.023438 48.074219 21.066406 48.046875 C 21.109375 48.019531 21.554688 47.984375 22.054688 47.964844 C 22.851562 47.9375 23.003906 47.972656 23.320312 48.269531 C 23.515625 48.453125 23.804688 48.851562 23.957031 49.148438 C 24.109375 49.453125 24.476562 49.960938 24.773438 50.285156 C 25.070312 50.609375 25.375 51.054688 25.453125 51.277344 C 25.601562 51.707031 25.898438 51.808594 26.027344 51.476562 C 26.121094 51.226562 27.886719 51.199219 30.351562 51.40625 C 36.152344 51.890625 36.070312 51.894531 36.371094 51.332031 C 36.46875 51.148438 36.511719 50.957031 36.464844 50.910156 C 36.417969 50.863281 35.808594 50.824219 35.109375 50.824219 C 34.410156 50.820312 34.085938 50.796875 34.382812 50.769531 C 34.6875 50.742188 35.132812 50.6875 35.382812 50.644531 L 35.835938 50.570312 L 35.144531 49.816406 C 34.355469 48.953125 33.460938 47.226562 33.136719 45.9375 C 32.6875 44.144531 33.171875 41.839844 34.472656 39.570312 C 35.074219 38.523438 35.332031 37.734375 35.011719 37.933594 C 34.941406 37.976562 34.726562 37.949219 34.53125 37.875 C 34.214844 37.753906 34.179688 37.773438 34.179688 38.074219 C 34.179688 38.445312 33.835938 38.691406 33.316406 38.691406 C 32.886719 38.691406 32.566406 38.335938 32.789062 38.113281 C 32.878906 38.023438 32.949219 37.902344 32.949219 37.84375 C 32.949219 37.625 32.683594 37.742188 32.238281 38.152344 C 31.992188 38.386719 31.460938 38.863281 31.058594 39.214844 C 30.074219 40.082031 28.816406 41.65625 28.390625 42.558594 C 27.605469 44.21875 27.667969 46.203125 28.5625 48.035156 C 29.144531 49.234375 30.089844 50.332031 30.804688 50.644531 C 31.050781 50.753906 31.140625 50.84375 31.011719 50.847656 C 30.613281 50.867188 29.621094 49.992188 28.96875 49.042969 C 28.101562 47.78125 27.691406 46.46875 27.707031 44.980469 C 27.730469 42.855469 28.5 41.421875 30.804688 39.203125 L 32.335938 37.734375 L 31.71875 37.753906 C 31.378906 37.765625 30.242188 37.828125 29.1875 37.894531 M 33.046875 38.003906 C 32.960938 38.332031 33.414062 38.519531 33.707031 38.277344 C 34.039062 38 33.941406 37.734375 33.511719 37.734375 C 33.234375 37.734375 33.097656 37.8125 33.046875 38.003906 M 35.445312 37.964844 C 35.761719 38.046875 35.746094 38.199219 35.375 38.601562 C 34.875 39.144531 33.671875 41.558594 33.421875 42.519531 C 32.765625 45.027344 33.425781 47.515625 35.289062 49.550781 C 35.972656 50.296875 36.460938 50.671875 36.589844 50.546875 C 36.621094 50.511719 36.261719 50.09375 35.789062 49.613281 C 34.332031 48.136719 33.664062 46.207031 33.828125 43.933594 C 33.960938 42.050781 35.136719 38.992188 36.039062 38.179688 L 36.382812 37.871094 L 35.792969 37.886719 C 35.46875 37.894531 35.3125 37.929688 35.445312 37.964844 M 40.101562 38.554688 C 40.101562 38.96875 40.125 39.136719 40.15625 38.929688 C 40.1875 38.722656 40.1875 38.386719 40.15625 38.179688 C 40.125 37.972656 40.101562 38.140625 40.101562 38.554688 M 42.695312 38.417969 C 42.695312 38.757812 42.71875 38.894531 42.753906 38.726562 C 42.785156 38.554688 42.785156 38.28125 42.753906 38.109375 C 42.71875 37.941406 42.695312 38.078125 42.695312 38.417969 M 19.484375 39.480469 C 18.414062 40.046875 16.71875 41.621094 16.351562 42.382812 L 16.121094 42.859375 L 16.421875 42.453125 C 17.179688 41.425781 18.847656 39.9375 19.761719 39.464844 C 20.285156 39.199219 20.652344 38.976562 20.578125 38.976562 C 20.5 38.972656 20.007812 39.203125 19.484375 39.480469 M 47.714844 40.050781 C 47.714844 40.3125 48.257812 40.46875 49.183594 40.46875 C 49.730469 40.46875 50.1875 40.539062 50.285156 40.632812 C 50.46875 40.816406 50.503906 40.632812 50.335938 40.367188 C 50.261719 40.246094 49.964844 40.222656 49.308594 40.277344 C 48.59375 40.339844 48.3125 40.308594 48.050781 40.136719 C 47.867188 40.015625 47.714844 39.976562 47.714844 40.050781 M 40.238281 40.8125 C 40.238281 41.261719 40.265625 41.429688 40.292969 41.183594 C 40.324219 40.9375 40.324219 40.570312 40.292969 40.363281 C 40.261719 40.160156 40.238281 40.359375 40.238281 40.8125 M 47.714844 41.21875 C 47.890625 41.410156 48.097656 41.5625 48.171875 41.5625 C 48.246094 41.5625 48.164062 41.410156 47.988281 41.21875 C 47.8125 41.03125 47.605469 40.878906 47.53125 40.878906 C 47.457031 40.878906 47.539062 41.03125 47.714844 41.21875 M 48.214844 41.023438 C 48.765625 41.230469 50.449219 41.296875 50.449219 41.113281 C 50.449219 40.996094 50.078125 40.941406 49.1875 40.933594 C 48.441406 40.925781 48.042969 40.960938 48.214844 41.023438 M 50.121094 41.640625 C 50.066406 41.789062 49.945312 41.828125 49.730469 41.769531 C 49.488281 41.699219 49.46875 41.710938 49.628906 41.828125 C 49.8125 41.957031 49.8125 41.988281 49.628906 42.105469 C 49.316406 42.3125 48.988281 42.273438 48.382812 41.964844 C 48.078125 41.808594 47.765625 41.707031 47.683594 41.734375 C 47.601562 41.761719 47.9375 41.992188 48.433594 42.25 C 49.242188 42.667969 49.363281 42.695312 49.671875 42.535156 C 49.960938 42.378906 50.097656 42.195312 50.421875 41.527344 C 50.449219 41.472656 50.410156 41.425781 50.339844 41.425781 C 50.265625 41.425781 50.167969 41.523438 50.121094 41.640625 M 40.089844 42.929688 C 40.089844 43.191406 40.117188 43.300781 40.152344 43.167969 C 40.1875 43.039062 40.1875 42.820312 40.152344 42.691406 C 40.117188 42.558594 40.089844 42.667969 40.089844 42.929688 M 14.640625 43.421875 C 14.144531 43.835938 14.101562 44.25 14.503906 44.757812 C 14.785156 45.117188 15.039062 45.226562 15.039062 44.992188 C 15.039062 44.925781 15.253906 44.488281 15.515625 44.023438 C 15.78125 43.558594 15.996094 43.152344 15.996094 43.121094 C 15.996094 43.089844 15.785156 43.066406 15.527344 43.066406 C 15.222656 43.066406 14.914062 43.191406 14.640625 43.421875 M 40.367188 43.679688 C 40.367188 43.984375 40.394531 44.089844 40.429688 43.917969 C 40.460938 43.75 40.460938 43.503906 40.425781 43.371094 C 40.390625 43.242188 40.363281 43.382812 40.367188 43.679688 M 46.6875 43.726562 C 43.898438 44.5625 42.453125 46.417969 41.21875 50.746094 C 40.957031 51.667969 40.742188 52.460938 40.742188 52.507812 C 40.742188 52.652344 42.445312 52.769531 42.871094 52.65625 C 43.144531 52.582031 43.382812 52.34375 43.65625 51.875 C 44.265625 50.824219 45.339844 49.804688 46.207031 49.460938 C 46.898438 49.1875 47.171875 49.164062 49.453125 49.1875 L 51.945312 49.214844 L 51.859375 48.773438 C 51.8125 48.527344 51.664062 48.007812 51.527344 47.613281 C 51.394531 47.21875 51.316406 46.894531 51.351562 46.894531 C 51.480469 46.894531 51.96875 48.128906 52.066406 48.707031 C 52.164062 49.269531 52.179688 49.285156 52.675781 49.28125 C 56.925781 49.222656 57.011719 49.21875 57.011719 49.023438 C 57.011719 48.707031 56.117188 47.085938 55.582031 46.433594 C 54.777344 45.449219 53.136719 44.179688 52.265625 43.859375 C 51.132812 43.449219 47.878906 43.371094 46.6875 43.726562 M 14.539062 43.824219 C 14.496094 43.941406 14.496094 44.074219 14.542969 44.121094 C 14.589844 44.167969 14.628906 44.132812 14.628906 44.046875 C 14.628906 43.957031 14.785156 43.886719 14.980469 43.886719 C 15.175781 43.886719 15.292969 43.828125 15.242188 43.75 C 15.113281 43.539062 14.628906 43.589844 14.539062 43.824219 M 51.519531 43.960938 C 51.769531 44.078125 52.375 44.421875 52.859375 44.726562 C 53.34375 45.035156 53.773438 45.253906 53.8125 45.21875 C 53.964844 45.066406 52.140625 44.019531 51.40625 43.835938 C 51.175781 43.78125 51.214844 43.820312 51.519531 43.960938 M 39.964844 45.625 C 39.796875 46.359375 39.625 47.117188 39.582031 47.304688 L 39.503906 47.648438 L 39.652344 47.304688 C 39.871094 46.808594 40.355469 44.71875 40.304688 44.484375 C 40.28125 44.378906 40.128906 44.890625 39.964844 45.625 M 14.21875 45.023438 C 14.21875 45.265625 14.738281 45.738281 14.863281 45.613281 C 14.914062 45.5625 14.792969 45.363281 14.589844 45.175781 C 14.347656 44.953125 14.21875 44.898438 14.21875 45.023438 M 34.179688 45.3125 C 34.179688 45.566406 34.273438 45.664062 34.589844 45.730469 C 35.003906 45.824219 35.230469 46.027344 35.082031 46.175781 C 35.039062 46.21875 34.847656 46.183594 34.660156 46.097656 C 34.253906 45.914062 34.238281 46.007812 34.535156 46.75 C 34.726562 47.234375 34.78125 47.273438 35.011719 47.128906 C 35.308594 46.941406 35.480469 46.242188 35.355469 45.734375 C 35.277344 45.425781 34.671875 44.980469 34.324219 44.980469 C 34.246094 44.980469 34.179688 45.128906 34.179688 45.3125 M 16.472656 45.390625 C 16.335938 45.542969 16.265625 45.707031 16.316406 45.757812 C 16.40625 45.847656 16.804688 45.417969 16.8125 45.21875 C 16.820312 45.058594 16.738281 45.097656 16.472656 45.390625 M 16.84375 45.554688 C 16.605469 45.792969 16.640625 46.003906 16.882812 45.800781 C 16.996094 45.707031 17.089844 45.683594 17.089844 45.75 C 17.089844 45.949219 17.75 45.921875 17.828125 45.71875 C 17.867188 45.613281 17.847656 45.527344 17.78125 45.527344 C 17.714844 45.527344 17.628906 45.605469 17.589844 45.699219 C 17.539062 45.828125 17.519531 45.828125 17.511719 45.691406 C 17.503906 45.589844 17.429688 45.554688 17.347656 45.605469 C 17.265625 45.65625 17.152344 45.628906 17.101562 45.546875 C 17.03125 45.433594 16.960938 45.4375 16.84375 45.554688 M 17.996094 45.734375 C 17.953125 45.84375 17.976562 45.9375 18.050781 45.9375 C 18.125 45.9375 18.183594 45.863281 18.183594 45.773438 C 18.183594 45.683594 18.273438 45.730469 18.382812 45.878906 C 18.554688 46.101562 18.585938 46.109375 18.589844 45.917969 C 18.59375 45.792969 18.496094 45.65625 18.378906 45.609375 C 18.085938 45.5 18.085938 45.5 17.996094 45.734375 M 18.730469 45.867188 C 18.730469 45.980469 18.792969 46.074219 18.867188 46.074219 C 18.941406 46.074219 19.003906 45.980469 19.003906 45.867188 C 19.003906 45.757812 18.941406 45.664062 18.867188 45.664062 C 18.792969 45.664062 18.730469 45.757812 18.730469 45.867188 M 29.988281 45.957031 C 30.027344 46.222656 30.117188 46.253906 30.878906 46.25 C 31.800781 46.25 31.929688 46.195312 31.808594 45.875 C 31.746094 45.714844 31.511719 45.664062 30.835938 45.664062 C 30 45.664062 29.945312 45.683594 29.988281 45.957031 M 39.101562 48.566406 C 38.765625 49.496094 37.996094 51.09375 37.570312 51.75 L 37.300781 52.15625 L 37.648438 51.753906 C 38.222656 51.085938 39.648438 47.945312 39.464844 47.757812 C 39.4375 47.730469 39.273438 48.09375 39.101562 48.566406 M 21.269531 48.394531 C 21.410156 48.535156 23.242188 48.855469 23.339844 48.757812 C 23.476562 48.621094 22.855469 48.429688 22.019531 48.351562 C 21.484375 48.300781 21.191406 48.316406 21.269531 48.394531 M 21.191406 49.199219 C 21.191406 49.386719 21.53125 49.472656 22.78125 49.605469 C 23.511719 49.683594 23.742188 49.667969 23.699219 49.550781 C 23.664062 49.460938 23.316406 49.347656 22.925781 49.296875 C 22.535156 49.246094 21.984375 49.171875 21.703125 49.125 C 21.371094 49.074219 21.191406 49.101562 21.191406 49.199219 M 17.15625 49.757812 C 16.8125 49.898438 16.503906 50.453125 16.566406 50.820312 C 16.601562 51.042969 16.710938 50.953125 17.117188 50.363281 C 17.636719 49.613281 17.636719 49.5625 17.15625 49.757812 M 16.839844 50.207031 C 16.753906 50.292969 16.679688 50.460938 16.679688 50.574219 C 16.679688 50.71875 16.75 50.683594 16.898438 50.472656 C 17.136719 50.128906 17.097656 49.949219 16.839844 50.207031 M 22.476562 50.605469 C 22.4375 50.667969 22.640625 50.722656 22.925781 50.722656 C 23.703125 50.726562 24.082031 50.859375 24.03125 51.117188 C 23.996094 51.300781 23.824219 51.332031 23.035156 51.296875 C 22.410156 51.273438 22.152344 51.304688 22.285156 51.386719 C 22.445312 51.484375 25.15625 51.691406 25.15625 51.605469 C 25.15625 51.292969 24.785156 50.707031 24.5625 50.660156 C 23.945312 50.527344 22.546875 50.492188 22.476562 50.605469 M 31.894531 50.960938 C 32.253906 50.988281 32.808594 50.988281 33.125 50.960938 C 33.441406 50.929688 33.148438 50.90625 32.46875 50.90625 C 31.792969 50.910156 31.535156 50.933594 31.894531 50.960938 M 16.542969 51.40625 C 16.355469 51.464844 15.992188 51.523438 15.734375 51.53125 C 14.945312 51.550781 15.324219 51.660156 16.945312 51.871094 C 17.796875 51.984375 18.558594 52.136719 18.636719 52.214844 C 18.730469 52.308594 18.625 52.332031 18.308594 52.289062 C 16.921875 52.105469 15.269531 51.949219 15.21875 52 C 15.1875 52.03125 15.324219 52.1875 15.519531 52.339844 C 15.878906 52.625 16.816406 52.9375 17.839844 53.113281 C 18.410156 53.210938 18.933594 53.4375 18.832031 53.539062 C 18.75 53.617188 16.914062 53.230469 16.089844 52.960938 C 15.324219 52.710938 15.175781 52.769531 15.59375 53.164062 C 16 53.542969 17.140625 54.0625 18.011719 54.269531 C 18.40625 54.363281 18.730469 54.496094 18.730469 54.5625 C 18.730469 54.816406 16.765625 54.242188 15.898438 53.730469 C 15.632812 53.574219 15.375 53.484375 15.332031 53.53125 C 15.195312 53.664062 16.105469 54.339844 17.152344 54.890625 C 18.042969 55.355469 18.074219 55.386719 17.570312 55.296875 C 17.179688 55.230469 17.0625 55.242188 17.160156 55.347656 C 17.234375 55.429688 17.746094 55.574219 18.296875 55.667969 C 19.730469 55.914062 19.9375 55.773438 20.324219 54.316406 C 20.582031 53.328125 20.59375 53.160156 20.421875 52.816406 C 20.148438 52.265625 19.3125 51.566406 18.742188 51.40625 C 18.171875 51.25 17.035156 51.25 16.542969 51.40625 M 26.25 51.636719 C 26.25 51.722656 26.625 51.753906 27.242188 51.714844 C 27.785156 51.679688 29.402344 51.78125 30.828125 51.9375 C 33.460938 52.226562 35.625 52.332031 35.78125 52.175781 C 35.828125 52.128906 35.472656 52.089844 34.988281 52.089844 C 34.507812 52.089844 33.402344 51.996094 32.539062 51.886719 C 30.46875 51.621094 26.25 51.453125 26.25 51.636719 M 47.488281 52.152344 C 46.753906 52.472656 45.996094 53.273438 45.582031 54.171875 C 45.210938 54.972656 45.1875 55.140625 45.1875 56.738281 C 45.1875 58.300781 45.214844 58.511719 45.546875 59.21875 C 46.050781 60.289062 46.878906 61.0625 47.816406 61.335938 C 51.15625 62.304688 53.523438 57.953125 51.6875 54.210938 C 50.957031 52.71875 49.910156 51.957031 48.601562 51.960938 C 48.226562 51.960938 47.726562 52.046875 47.488281 52.152344 M 47.972656 52.949219 C 46.988281 53.609375 46.210938 55.257812 46.210938 56.6875 C 46.210938 57.570312 46.4375 58.671875 46.6875 59.011719 C 46.839844 59.222656 46.835938 59.136719 46.679688 58.519531 C 46.253906 56.882812 46.523438 55.058594 47.347656 53.976562 C 48.152344 52.925781 49.066406 52.546875 49.960938 52.894531 C 50.257812 53.011719 50.15625 53.101562 49.5625 53.242188 C 48.574219 53.480469 47.570312 54.707031 47.300781 56.003906 C 47.113281 56.898438 47.308594 58.40625 47.714844 59.199219 C 48.066406 59.882812 48.863281 60.527344 49.496094 60.636719 C 51.753906 61.015625 53.007812 57.191406 51.574219 54.296875 C 50.839844 52.8125 49.132812 52.171875 47.972656 52.949219 M 20.644531 54.140625 C 20.378906 55.242188 20.757812 55.628906 21.320312 54.835938 C 21.667969 54.347656 21.679688 53.980469 21.351562 53.683594 C 20.953125 53.324219 20.820312 53.410156 20.644531 54.140625 M 49.355469 53.675781 C 47.972656 54.273438 47.261719 55.9375 47.570312 57.847656 C 47.929688 60.082031 49.910156 61.179688 51.101562 59.800781 C 51.679688 59.132812 51.953125 58.183594 51.953125 56.855469 C 51.953125 55.042969 51.140625 53.449219 50.21875 53.460938 C 50.007812 53.464844 49.617188 53.5625 49.355469 53.675781 M 13.535156 55.523438 C 9.5 56.554688 6.457031 57.695312 2.664062 59.601562 L 0.0703125 60.90625 L 0.03125 65.453125 L -0.00390625 70 L 35.03125 69.964844 L 70.070312 69.929688 L 70.105469 65.375 C 70.125 62.871094 70.089844 60.855469 70.023438 60.894531 C 69.960938 60.933594 69.144531 60.589844 68.210938 60.132812 C 65.359375 58.738281 61.882812 57.410156 57.730469 56.132812 C 57.433594 56.039062 57.421875 56.066406 57.417969 56.898438 C 57.40625 61.046875 54.636719 64.199219 50.636719 64.613281 C 48.699219 64.816406 46.925781 64.183594 45.539062 62.789062 C 43.992188 61.238281 43.144531 58.960938 43.226562 56.601562 C 43.25 55.925781 43.257812 55.371094 43.238281 55.371094 C 43.222656 55.371094 42.621094 55.523438 41.902344 55.710938 C 40.066406 56.1875 37.507812 56.371094 35.074219 56.195312 C 33.769531 56.105469 32.871094 56.101562 32.394531 56.191406 C 32.003906 56.265625 31.402344 56.328125 31.0625 56.328125 L 30.441406 56.328125 L 30.976562 56.800781 C 31.402344 57.179688 31.472656 57.304688 31.320312 57.40625 C 31.214844 57.476562 31.046875 57.5 30.945312 57.460938 C 30.699219 57.367188 30.714844 57.472656 31.035156 58.105469 C 31.367188 58.761719 31.652344 58.925781 32.445312 58.925781 C 33.125 58.925781 33.40625 59.148438 33.335938 59.632812 C 33.273438 60.0625 32.921875 60.097656 32.203125 59.75 C 31.640625 59.476562 31.570312 59.472656 31.1875 59.667969 C 30.5625 59.992188 30.351562 59.945312 30.351562 59.488281 C 30.351562 59.042969 29.84375 57.285156 29.660156 57.089844 C 29.589844 57.015625 29.503906 57.058594 29.453125 57.195312 C 29.34375 57.476562 29.039062 57.492188 28.933594 57.21875 C 28.824219 56.921875 28.96875 56.625 29.269531 56.527344 C 29.945312 56.316406 29.390625 56.191406 27.757812 56.191406 L 25.980469 56.191406 L 25.898438 56.566406 C 25.585938 57.980469 25.117188 58.828125 24.179688 59.667969 C 22.96875 60.757812 21.011719 61.222656 19.488281 60.777344 C 17.617188 60.234375 15.917969 57.515625 16.15625 55.449219 C 16.230469 54.828125 16.253906 54.828125 13.535156 55.523438 M 17.296875 55.941406 C 17.652344 57.109375 18.527344 58.0625 19.453125 58.292969 C 20.289062 58.5 21.515625 57.824219 22.066406 56.855469 L 22.328125 56.398438 L 21.988281 56.703125 C 21.726562 56.945312 21.492188 57.011719 20.910156 57.007812 C 20.179688 57.003906 19.136719 56.652344 18.945312 56.34375 C 18.894531 56.257812 18.789062 56.191406 18.710938 56.191406 C 18.515625 56.191406 19.09375 56.890625 19.527344 57.179688 C 19.925781 57.441406 21.117188 57.515625 21.257812 57.285156 C 21.304688 57.210938 21.417969 57.152344 21.507812 57.152344 C 21.597656 57.15625 21.523438 57.277344 21.347656 57.425781 C 20.667969 57.992188 19.507812 57.679688 18.574219 56.671875 C 18.246094 56.320312 17.804688 55.941406 17.589844 55.828125 C 17.210938 55.628906 17.203125 55.632812 17.296875 55.941406 M 49.308594 56.417969 C 49.257812 56.46875 49.21875 56.800781 49.21875 57.15625 C 49.21875 57.949219 49.488281 58.121094 49.976562 57.632812 C 50.335938 57.273438 50.414062 56.757812 50.148438 56.492188 C 49.972656 56.316406 49.457031 56.269531 49.308594 56.417969 M 47.980469 56.679688 C 47.855469 56.832031 47.839844 56.996094 47.933594 57.257812 C 48.082031 57.6875 48.542969 57.808594 48.804688 57.492188 C 49.03125 57.222656 48.882812 57.054688 48.613281 57.277344 C 48.5 57.371094 48.335938 57.398438 48.242188 57.339844 C 48.121094 57.265625 48.148438 57.207031 48.339844 57.132812 C 48.570312 57.042969 48.574219 57.03125 48.363281 57.019531 C 48.234375 57.015625 48.125 56.941406 48.125 56.859375 C 48.125 56.761719 48.273438 56.734375 48.527344 56.785156 C 48.847656 56.847656 48.917969 56.824219 48.855469 56.664062 C 48.753906 56.402344 48.207031 56.410156 47.980469 56.679688 M 49.5625 56.738281 C 49.460938 56.898438 49.589844 57.148438 49.773438 57.148438 C 49.84375 57.148438 49.902344 57.023438 49.902344 56.875 C 49.902344 56.585938 49.703125 56.507812 49.5625 56.738281 M 0.0625 65.488281 C 0.0625 68.007812 0.078125 69.039062 0.101562 67.777344 C 0.125 66.519531 0.125 64.457031 0.101562 63.199219 C 0.078125 61.9375 0.0625 62.96875 0.0625 65.488281 "/>
</g>
</svg>
